<svg width="706" height="93" viewBox="0 0 706 93" fill="none" xmlns="http://www.w3.org/2000/svg">
<path fill-rule="evenodd" clip-rule="evenodd" d="M0.466797 25.2126L67.6043 92.3501H0.466797V25.2126Z" fill="#BBD034"/>
<path fill-rule="evenodd" clip-rule="evenodd" d="M200.479 81.084C188.145 81.084 178.486 70.9289 178.486 57.9619C178.486 44.561 187.629 34.8352 200.226 34.8352C212.835 34.8352 222.343 44.7768 222.343 57.9619C222.343 71.3604 213.148 81.084 200.479 81.084ZM200.479 24.9349C181.535 24.9349 166.694 39.4421 166.694 57.9619C166.694 76.4104 181.422 90.8603 200.226 90.8603C219.24 90.8603 234.135 76.4104 234.135 57.9619C234.135 39.1323 219.667 24.9349 200.479 24.9349Z" fill="white"/>
<path fill-rule="evenodd" clip-rule="evenodd" d="M258.136 57.9619C258.136 44.7768 267.105 34.8352 278.995 34.8352C287.213 34.8352 292.329 38.5423 296.211 42.3689L303.334 34.6791C296.755 27.9442 289.251 24.9349 279.121 24.9349C260.744 24.9349 246.347 39.4421 246.347 57.9619C246.347 76.4104 260.689 90.8603 278.995 90.8603C291.723 90.8603 298.713 85.5601 303.8 80.1773L297.003 73.4746C291.487 78.7311 286.134 81.084 279.75 81.084C267.431 81.084 258.136 71.1447 258.136 57.9619Z" fill="white"/>
<path fill-rule="evenodd" clip-rule="evenodd" d="M388.695 26.3168H376.09L402.008 89.8572H413.417L439.213 26.3168H426.981L407.77 78.4419L388.695 26.3168Z" fill="white"/>
<path fill-rule="evenodd" clip-rule="evenodd" d="M455.036 89.3522H466.825V26.3168H455.036V89.3522Z" fill="white"/>
<path fill-rule="evenodd" clip-rule="evenodd" d="M603.175 81.084C590.842 81.084 581.183 70.9289 581.183 57.9619C581.183 44.561 590.325 34.8352 602.921 34.8352C615.532 34.8352 625.04 44.7768 625.04 57.9619C625.04 71.3604 615.844 81.084 603.175 81.084ZM603.175 24.9349C584.231 24.9349 569.391 39.4421 569.391 57.9619C569.391 76.4104 584.118 90.8603 602.921 90.8603C621.938 90.8603 636.834 76.4104 636.834 57.9619C636.834 39.1323 622.363 24.9349 603.175 24.9349Z" fill="white"/>
<path fill-rule="evenodd" clip-rule="evenodd" d="M142.004 60.1471C140.962 72.5058 132.01 81.0839 120.234 81.0839C107.901 81.0839 98.2394 70.9289 98.2394 57.9619C98.2394 44.561 107.382 34.8352 119.98 34.8352C131.696 34.8352 140.955 43.6313 142 55.749L142.004 60.1471ZM120.234 24.9349C101.29 24.9349 86.45 39.4421 86.45 57.9619C86.45 76.4104 101.178 90.8603 119.98 90.8603C127.038 90.8603 133.729 88.8908 139.33 85.1653L142.004 83.384V90.6422H154.342V0.116455H142.004V32.2597L139.335 30.5014C133.812 26.8585 127.206 24.9349 120.234 24.9349Z" fill="white"/>
<path fill-rule="evenodd" clip-rule="evenodd" d="M677.186 26.5004C672.26 26.5004 667.425 27.7147 663.204 30.0056L660.661 31.3897V24.5034H648.867L648.855 53.9747L648.858 90.4978H660.668V53.635C660.957 43.7049 667.664 36.7886 676.981 36.7886C681.588 36.7886 685.835 38.5883 688.934 41.8547C692.023 45.1097 693.724 49.5766 693.717 54.4315V90.4978H705.454V54.2502C705.454 38.6916 693.038 26.5004 677.186 26.5004Z" fill="white"/>
<path fill-rule="evenodd" clip-rule="evenodd" d="M544.751 89.3522H556.538V26.3168H544.751V89.3522Z" fill="white"/>
<path fill-rule="evenodd" clip-rule="evenodd" d="M363.589 34.679C357.01 27.9442 349.507 24.9348 339.377 24.9348C326.674 25.1047 317.443 33.1227 317.443 43.9986C317.443 49.2965 319.47 53.3663 323.641 56.4445C327.41 59.0728 332.194 60.7554 336.383 62.0592C336.585 62.1304 336.774 62.1832 336.96 62.2383C337.23 62.314 337.469 62.3829 337.676 62.4517L338.068 62.5803C345.854 65.1282 352.573 67.3273 352.573 73.0246C352.573 75.483 351.224 81.2102 338.706 81.279C332.254 81.279 326.267 78.6576 320.774 73.486L313.977 80.1864C321.123 87.6719 328.643 90.8763 338.968 90.8763L341.137 90.8304C353.87 90.656 363.107 82.638 363.107 71.7644C363.107 66.4802 361.092 62.4196 356.946 59.3483C353.138 56.6878 348.357 55.0053 344.17 53.7038C343.991 53.6395 343.825 53.5936 343.66 53.5477L343.428 53.4788L342.457 53.1735C334.685 50.6278 327.977 48.4311 327.977 42.7384C327.977 37.9753 332.449 34.8787 339.367 34.8466C347.5 34.8466 352.594 38.5469 356.466 42.3688L363.589 34.679Z" fill="white"/>
<path fill-rule="evenodd" clip-rule="evenodd" d="M530.01 34.679C523.431 27.9442 515.927 24.9348 505.797 24.9348C493.094 25.1047 483.864 33.1227 483.864 43.9986C483.864 49.2965 485.891 53.3663 490.062 56.4445C493.831 59.0728 498.615 60.7554 502.804 62.0592C503.006 62.1304 503.194 62.1832 503.38 62.2383C503.651 62.314 503.89 62.3829 504.097 62.4517L504.489 62.5803C512.275 65.1282 518.994 67.3273 518.994 73.0246C518.994 75.483 517.644 81.2102 505.127 81.279C498.675 81.279 492.688 78.6576 487.195 73.486L480.398 80.1864C487.544 87.6719 495.064 90.8763 505.389 90.8763L507.558 90.8304C520.291 90.656 529.528 82.638 529.528 71.7644C529.528 66.4802 527.513 62.4196 523.367 59.3483C519.559 56.6878 514.777 55.0053 510.59 53.7038C510.411 53.6395 510.246 53.5936 510.081 53.5477L509.849 53.4788L508.878 53.1735C501.106 50.6278 494.398 48.4311 494.398 42.7384C494.398 37.9753 498.87 34.8787 505.788 34.8466C513.921 34.8466 519.015 38.5469 522.887 42.3688L530.01 34.679Z" fill="white"/>
<path fill-rule="evenodd" clip-rule="evenodd" d="M460.923 12.4545C464.165 12.4545 466.8 9.81936 466.8 6.57818C466.8 3.33929 464.165 0.704102 460.923 0.704102C457.684 0.704102 455.047 3.33929 455.047 6.57818C455.047 9.81936 457.684 12.4545 460.923 12.4545Z" fill="white"/>
<path fill-rule="evenodd" clip-rule="evenodd" d="M550.876 12.4545C554.118 12.4545 556.753 9.81936 556.753 6.57818C556.753 3.33929 554.118 0.704102 550.876 0.704102C547.638 0.704102 545 3.33929 545 6.57818C545 9.81936 547.638 12.4545 550.876 12.4545Z" fill="white"/>
</svg>
