<svg xmlns="http://www.w3.org/2000/svg" viewBox="0 0 48 42"><path d="M35.136 1.086a1.061 1.061 0 0 1-.03-.01l-.02-.008C30.66-.44 25.978-.348 21.904 1.325c-4.129 1.695-7.143 4.803-8.487 8.754a1.115 1.115 0 0 0 .697 1.416c.023.008.047.01.07.016.02.009.04.021.062.03.584.2 1.217-.114 1.416-.698.144-.426 2.023-.864 4.578.006 1.208.412 2.296 1.032 2.987 1.704.38.368.553.67.615.871-.01.191-.032.379-.032.573 0 .014.004.028.005.042 0 .013-.002.026-.001.037.001.024.009.047.012.07.005.038.01.076.018.112.008.033.019.063.03.094a.961.961 0 0 0 .042.11c.013.03.03.058.046.087.02.032.038.066.06.096.02.03.044.055.068.082a.972.972 0 0 0 .072.078c.026.025.056.047.085.07a.926.926 0 0 0 .18.113.808.808 0 0 0 .104.047c.013.005.024.013.037.017l.006.001c.02.007.04.009.059.014a.992.992 0 0 0 .236.038c.014 0 .028.004.043.004.005 0 .01.003.016.003.007 0 .014-.003.02-.003h.013c.045-.002.088-.008.132-.014.03-.005.06-.009.09-.016a1.57 1.57 0 0 0 .065-.017c.018-.005.035-.014.053-.02.03-.01.059-.02.087-.033a1.26 1.26 0 0 0 .103-.056c.023-.013.047-.024.069-.04l.023-.016c.03-.022.056-.047.083-.072a.797.797 0 0 0 .128-.134l.037-.046a.895.895 0 0 0 .036-.053 1.294 1.294 0 0 0 .1-.198c.005-.014.012-.024.016-.037l.002-.002c.125-.365 1.526-.731 3.526-.286-.04.068-.076.14-.102.217l-6.487 19.056c-.015.044-.022.088-.03.133H9.152L2.069 21.852a1.115 1.115 0 1 0-1.905 1.16l7.06 11.59-3.365 5.716a1.116 1.116 0 1 0 1.923 1.132l3.38-5.74h25.843l3.38 5.74a1.113 1.113 0 0 0 1.528.396c.531-.313.708-.997.396-1.528l-3.704-6.29c-.006-.011-.014-.018-.02-.027-.021-.034-.046-.065-.07-.096a1.201 1.201 0 0 0-.066-.08c-.025-.026-.053-.05-.08-.074-.027-.023-.054-.047-.081-.067-.03-.021-.065-.04-.097-.058-.03-.016-.058-.034-.089-.047-.035-.016-.071-.027-.108-.04-.032-.01-.064-.022-.096-.03-.036-.008-.071-.012-.107-.017-.038-.005-.076-.01-.114-.01-.012-.002-.022-.005-.034-.005H25.234l6.287-18.468a1.15 1.15 0 0 0 .051-.236c1.858.869 2.744 2.015 2.62 2.379a1.115 1.115 0 0 0 .697 1.415c.11.038.218.051.326.055.012 0 .023.006.034.006.01 0 .017-.004.026-.004.102-.002.201-.017.298-.047.015-.004.029-.012.044-.016a1.15 1.15 0 0 0 .248-.124l.037-.022c.03-.022.057-.047.084-.072.143-.087.272-.202.368-.354.068-.108.126-.215.19-.322.188-.105.482-.211.933-.263.958-.11 2.2.061 3.406.473 2.554.869 3.774 2.363 3.63 2.79a1.114 1.114 0 0 0 .699 1.414c.016.006.032.004.049.008.028.013.053.028.082.038a1.117 1.117 0 0 0 1.416-.698c2.752-8.084-2.46-17.197-11.622-20.343zM20.96 8.736c-1.489-.507-2.911-.691-4.114-.592 1.366-2.07 3.385-3.72 5.905-4.755 2.606-1.07 5.506-1.39 8.402-.973-2.86 1.661-5.666 4.54-6.805 8.168-.9-.749-2.07-1.4-3.388-1.848zm10.322 3.513c-1.86-.633-3.616-.764-4.968-.463 1.08-4.371 5.16-7.352 7.877-8.332 1.398 2.68 2.744 7.22 1.238 11.372-.894-1.03-2.338-1.96-4.147-2.576zm10.321 3.514c-1.356-.462-2.719-.66-3.916-.599 1.358-4.118.364-8.198-.66-10.822 5.353 2.868 8.57 8.187 8.195 13.461-.892-.813-2.131-1.533-3.62-2.04h.001z"/></svg>