<svg xmlns="http://www.w3.org/2000/svg" viewBox="0 0 61 42"><path d="m60.384 26.837-1.41-.805-.134-.067.135-.067 1.409-.872-1.41-.805-.134-.067.135-.067 1.409-.805-1.41-.805L20.53.268 20.06 0l-.47.268L1.41 10.802 0 11.607l1.41.805.134.067-.135.067L0 13.418l1.41.805.133.068-.134.066L0 15.163l1.41.805.134.067-.135.067L0 16.974l1.41.805.134.067-.135.067L0 18.719l1.41.805 38.444 22.208.47.268.47-.268 18.182-10.534 1.408-.805-1.41-.805-.133-.067.134-.067 1.41-.805-1.41-.805-.134-.135.134-.067 1.409-.805zM20.06 1.811l13.888 8.052-1.543.939-9.796-5.636-.604-.336-.603.336c-.671.403-1.812.403-2.55 0l-.604-.336-.604.336-8.789 5.099-.603.336.603.335c.672.403.738 1.074 0 1.476l-.603.336.603.335 9.796 5.636-1.611.94-13.888-8.052L20.06 1.811zm30.93 22.544-8.79 5.099c-1.073-.604-2.75-.604-3.757 0l-9.795-5.636 12.546-7.313 9.796 5.703c-1.074.604-1.074 1.543 0 2.147zm-31.802-5.971L9.393 12.68c1.006-.603 1.073-1.61 0-2.214l8.789-5.099c1.073.604 2.75.604 3.757 0l9.796 5.636-12.546 7.38zM4.025 12.882l12.345 7.111v1.074L3.153 13.418l.872-.536zm0 1.744 12.346 7.112v1.074L3.152 15.163l.872-.537zm0 1.812 12.346 7.112v1.073L3.152 16.974l.872-.536zm0 1.744 12.346 7.112v1.074L3.152 18.719l.872-.537zM40.323 40.19 25.83 31.802V30.73l14.492 8.386 16.035-9.258.94.537-16.975 9.795zm0-1.744L25.83 30.058v-1.074l14.492 8.387 16.035-9.326.94.537-16.975 9.863zm0-1.812L25.83 28.246v-1.073l14.492 8.386L56.358 26.3l.94.537-16.975 9.796zm0-1.744L25.83 26.502v-1.074l14.492 8.387 16.035-9.326.94.537-16.975 9.863zm0-1.812-13.888-8.051 1.543-.872 9.795 5.635.604.336.604-.336c.671-.402 1.812-.402 2.482 0l.604.336.604-.336 8.789-5.099.604-.335-.604-.336c-.671-.402-.671-1.073 0-1.476l.604-.335-.604-.336-9.796-5.636 1.543-.94 13.888 8.052-16.772 9.729z"/></svg>