<svg xmlns="http://www.w3.org/2000/svg" viewBox="0 0 120 42"><path d="m58.822 27.62-7.337-.762a8.503 8.503 0 0 1 1.284-2.423l6.054.011c.15 0 .274.12.274.27v2.659a.245.245 0 0 1-.275.245zm1.065 3.947a3.481 3.481 0 1 0 3.229 3.714 3.482 3.482 0 0 0-3.23-3.714zm59.31-10.086c0 .13-.068.273-.068.273l-1.646 3.533c-1.338 2.804-2.203 3.973-8.825 4.759l-11.767 1.219a4.937 4.937 0 0 1 2.129 3.73 4.956 4.956 0 0 1-4.595 5.286 4.953 4.953 0 0 1-3.929-8.357l-5.89.61a4.953 4.953 0 1 1-8.687.9l-3.69.38-.028.01c-.71.11-1.147.643-1.366 1.054A12.418 12.418 0 0 1 59.6 42a12.41 12.41 0 0 1-11.235-7.128l-.017-.03c-.242-.417-.669-.91-1.346-1.016l-.032-.006-3.688-.382c.279.683.41 1.437.353 2.218a4.947 4.947 0 0 1-5.285 4.595 4.95 4.95 0 0 1-3.758-7.712l-5.888-.61a4.956 4.956 0 0 1-3.931 8.357 4.953 4.953 0 0 1-2.466-9.016L10.54 30.05c-6.622-.785-7.489-1.953-8.822-4.758l-1.65-3.533S0 21.617 0 21.486c0-.352.288-.635.641-.635.235 0 .45.093.562.31l1.999 4.27c.629 1.102 1.759 1.711 2.718 1.803l40.487 1.36c.458-.042.8-.384.906-.827a12.43 12.43 0 0 1 5.56-8.614c.137-.097.215-.23.215-.372a.414.414 0 0 0-.327-.415L40.344 15.97c-.7-.137-.82-.442-.771-.751.048-.307.256-.562.965-.478 0 0 16.42 2.106 16.46 2.106.651 0 1.186-.542 1.254-1.2l.485-14.437c.036-.984.426-1.21.855-1.21.427 0 .82.226.855 1.21l.478 14.319c.014.708.573 1.318 1.262 1.318.04 0 16.467-2.106 16.467-2.106.703-.084.908.171.957.478.05.308-.069.613-.77.75l-12.418 2.397a.418.418 0 0 0-.326.415c0 .152.092.296.213.372a12.424 12.424 0 0 1 5.532 8.453c.003.04.011.077.022.116.091.464.44.83.912.874l40.487-1.36c.958-.094 2.089-.703 2.719-1.803l2.001-4.27c.114-.218.328-.31.561-.31a.631.631 0 0 1 .652.628h.001zM28.205 35.559a3.094 3.094 0 1 0-3.304 2.869 3.093 3.093 0 0 0 3.304-2.87zm13.578-.033a3.097 3.097 0 0 0-2.872-3.305 3.1 3.1 0 0 0-3.304 2.875 3.092 3.092 0 0 0 2.872 3.3 3.091 3.091 0 0 0 3.303-2.87zm27.68-5.938c0-5.451-4.418-9.869-9.868-9.869a9.869 9.869 0 0 0-9.87 9.87c0 5.451 4.418 9.869 9.87 9.869 5.45 0 9.869-4.418 9.869-9.87zm14.129 5.509a3.103 3.103 0 0 0-3.305-2.875 3.1 3.1 0 0 0-2.873 3.304 3.095 3.095 0 0 0 3.307 2.87 3.092 3.092 0 0 0 2.87-3.3zm10.274-2.843a3.099 3.099 0 0 0-2.873 3.305A3.1 3.1 0 0 0 94.3 38.43a3.094 3.094 0 0 0 2.869-3.303 3.098 3.098 0 0 0-3.304-2.874zm-33.498-7.81a.272.272 0 0 0-.273.27v2.66c0 .151.125.262.273.244l7.338-.762a8.492 8.492 0 0 0-1.28-2.422l-6.058.01z"/></svg>