<svg xmlns="http://www.w3.org/2000/svg" viewBox="0 0 32 32"><path fill-rule="evenodd" clip-rule="evenodd" d="M8.594 3h-.75v5.725l-4.366 1.702-.478.186v18.361h26.994v-18.37l-.49-.182-4.614-1.706.005-4.965V3h-16.3zm-3.309 8.332 2.559-.997v2.898l-2.559-1.9zm8.6 6.39-4.541-3.374V4.5h14.05l-.004 4.737-.005 5.099-4.792 3.376-2.424 1.708-2.284-1.697zm13.76-6.388-2.76 1.944.004-2.964 2.757 1.02zm-3.079 4.004 3.928-2.766v13.881l-8.296-8.037 4.368-3.078zm-5.616 3.957 8.442 8.179H5.533l7.983-8.157 2.194 1.63.435.324.444-.313 2.36-1.663zM4.5 12.617v13.768l7.8-7.97-4.154-3.088-3.646-2.71zm8.626-3.933h7.096v-1.5h-7.097v1.5zm7.096 2.365h-7.097v-1.5h7.097v1.5zm-7.097 2.366h7.097v-1.5h-7.097v1.5z"/></svg>