<svg xmlns="http://www.w3.org/2000/svg" viewBox="0 0 48 43"><path stroke="#000" stroke-width="1.5" d="M15.119 11.665h31.476V42.25H15.119z"/><path d="M31.5 7.116 20.418 4.058 9.334 1 1 31.203l10.194 2.813" stroke="#000" stroke-width="1.5"/><path d="M22.39 17h16.042v1.782H22.39zm0 4h16.042v1.782H22.39z"/><path fill-rule="evenodd" clip-rule="evenodd" d="M24.737 31.893 23.97 31l-.766.893-1.093-.435-.263 1.147-1.17.123.3 1.137-.979.653.794.868-.563 1.032 1.106.4-.019 1.176 1.166-.16.53 1.05.957-.684.957.684.53-1.05 1.165.16-.019-1.176 1.107-.4-.563-1.032.794-.868-.98-.653.3-1.137-1.17-.123-.262-1.147-1.093.435zM24 37a2 2 0 1 0 0-4 2 2 0 0 0 0 4z"/><path d="M30.495 35.959c.035-.25.084-.497.136-.742.034-.158.09-.755.233-.852.124-.083.718.883.756.936.157.224.91 1.542 1.265 1.29.287-.206.191-1.106.193-1.428.027-4.814-.02 2.79 0-.7 0-.095-.063-.351.002-.285.076.077.454 1.506.647 1.204.274-.428.374-1.023.604-1.488.06-.12.43-.93.644-.878.176.043.509.82.611.974.033.05.213.318.285.397.082.09.11-.22.115-.238.152-.54.365-1.019.702-1.434.053-.066.655-.812.758-.586.297.653.643 1.308.854 1.997" stroke="#000" stroke-linecap="round"/></svg>