<svg viewBox="0 0 42 42" xmlns="http://www.w3.org/2000/svg"><path d="m38.125 13.953-4.596-1.504-.075-.548c1.82-1.782 2.256-5.03 2.346-5.997.402-1.522.68-3.422-.743-4.632C32.795-.651 30.52-.013 29.374.744c-.45-.205-1.222-.44-1.97-.1-.765.344-1.243 1.165-1.421 2.44-.167 1.185.106 1.944.346 2.613l.064.18c.072 3.356 1.133 5.146 2.212 6.099-.014.115-.031.258-.06.468l-4.607 1.508c-1.128.363-2.017 1.175-2.44 2.227-.869 2.16-.847 5.11-.752 5.406.08.247.309.413.568.413h19.432a.596.596 0 0 0 .567-.413c.096-.297.118-3.247-.751-5.405-.423-1.053-1.312-1.865-2.437-2.228v.001zM27.163 3.248c.08-.576.273-1.31.728-1.517a.772.772 0 0 1 .325-.065c.357 0 .736.185.881.28a.6.6 0 0 0 .715-.044c.086-.072 2.103-1.736 4.472.278.565.48.758 1.175.6 2.29-.595-.489-1.508-.935-2.774-.735-2.04.32-2.763-.556-2.786-.585a.594.594 0 0 0-.641-.218.602.602 0 0 0-.435.526c-.003.036-.081.796-.968 1.332a3.42 3.42 0 0 1-.117-1.541zm.426 2.717c.841-.414 1.312-.984 1.559-1.471.617.345 1.628.655 3.147.418 1.328-.204 2.066.642 2.308.987-.13 1.27-.78 5.552-3.658 5.97-.033 0-3.192-.328-3.356-5.903zm5.421 7.569-1.974 2.302-2.175-2.242.318-.104a.59.59 0 0 0 .495-.504l.038-.28c.675.315 1.192.355 1.207.355l.038.001c.085 0 .167-.006.249-.02a3.893 3.893 0 0 0 1.151-.364l.041.302a.597.597 0 0 0 .406.486l.206.068zm-11.117 7.273c.011-.898.13-2.742.71-4.183.29-.723.91-1.283 1.702-1.538l3.296-1.08 2.58 2.66a1.21 1.21 0 0 0 1.807-.078l2.25-2.652 3.518 1.151c.79.254 1.408.814 1.699 1.537.59 1.468.703 3.352.721 4.183H21.893zm-4.47 9.7-3.9-1.276-.004-.001-.692-.227-.074-.547c1.82-1.779 2.255-5.02 2.345-5.994.403-1.523.683-3.425-.743-4.636-2.263-1.925-4.536-1.285-5.682-.528-.45-.205-1.223-.439-1.97-.101-.765.345-1.243 1.166-1.421 2.44-.167 1.188.106 1.948.347 2.617l.063.178c.072 3.355 1.133 5.145 2.212 6.098-.014.115-.031.258-.06.467l-4.608 1.509c-1.127.363-2.017 1.175-2.44 2.227-.868 2.159-.846 5.11-.75 5.407.08.246.308.412.567.412h19.432a.597.597 0 0 0 .567-.412c.096-.298.117-3.248-.751-5.406-.424-1.053-1.313-1.865-2.438-2.227zM6.461 19.802c.081-.577.273-1.31.729-1.517a.772.772 0 0 1 .325-.065c.357 0 .736.185.881.28a.6.6 0 0 0 .715-.045c.086-.072 2.1-1.736 4.472.278.565.48.758 1.176.6 2.29-.595-.489-1.51-.934-2.774-.734-2.042.318-2.763-.557-2.786-.585a.593.593 0 0 0-.642-.218.602.602 0 0 0-.434.526c-.003.035-.081.796-.968 1.332-.13-.431-.207-.9-.118-1.542zm.427 2.717c.841-.415 1.311-.985 1.559-1.471.617.345 1.63.654 3.147.418 1.33-.207 2.066.638 2.308.985-.13 1.267-.776 5.554-3.659 5.972-.032 0-3.19-.328-3.355-5.904zm5.421 7.568-1.974 2.302-2.175-2.241.318-.104a.591.591 0 0 0 .495-.505l.038-.28c.675.316 1.191.356 1.206.356h.038c.085 0 .168-.006.25-.019a3.904 3.904 0 0 0 1.151-.364l.041.301a.597.597 0 0 0 .406.486l.206.068zM1.192 37.36c.011-.898.13-2.741.71-4.183.29-.722.91-1.282 1.702-1.537L6.9 30.56l2.58 2.659c.228.236.542.368.869.368l.061-.001c.35-.019.674-.187.877-.444l2.25-2.653 3.518 1.152c.79.254 1.408.814 1.699 1.537.59 1.468.703 3.351.721 4.182H1.192zM40.58 27.012a.594.594 0 0 0-.744.395c-1.786 5.84-7.104 9.941-13.1 10.36l2.202-2.617a.596.596 0 0 0-.913-.767l-3.032 3.606a.594.594 0 0 0 .073.84l3.607 3.031a.593.593 0 0 0 .84-.072.596.596 0 0 0-.073-.84l-2.383-2.003c6.412-.524 12.011-4.953 13.918-11.188a.595.595 0 0 0-.395-.745zM15.398 7.662a.596.596 0 0 0 .833-.129l2.785-3.801a.598.598 0 0 0-.129-.833L15.085.115a.597.597 0 0 0-.704.962l2.52 1.844C10.534 3.87 5.237 8.66 3.751 15.01a.597.597 0 0 0 1.162.272c1.391-5.949 6.394-10.419 12.38-11.216L15.27 6.829a.596.596 0 0 0 .129.833z"/></svg>