<svg xmlns="http://www.w3.org/2000/svg" viewBox="0 0 45 42"><path d="M1.508 42h28.638c.846 0 1.509-.626 1.509-1.399v-9.165l11.447-11.448a3.597 3.597 0 0 0 1.068-2.43 3.298 3.298 0 0 0-.92-2.428c-.59-.59-1.4-.92-2.283-.92-.92 0-1.877.404-2.54 1.067l-15.532 15.57c-1.362 1.361-1.583 3.46-1.583 4.674l-1.583-.184-.331-1.62c-.037-.257-.22-.441-.479-.551-.257-.074-.515-.037-.699.11l-.7.589.369-2.393c.037-.331-.147-.662-.442-.773-.331-.147-.662-.037-.883.221l-4.05 5.006c-.257.331-.22.773.111 1.03a.74.74 0 0 0 .479.148c.22 0 .442-.11.589-.258l2.356-2.907-.221 1.582a.748.748 0 0 0 .368.736c.257.148.589.11.846-.073l1.215-.994.184.92c.074.295.331.552.626.59l2.944.33c.037 0 .405.037.92.037 1.142 0 3.277-.22 4.675-1.583l2.614-2.613v7.62H1.472V1.472h28.712v18c0 .405.33.736.736.736a.738.738 0 0 0 .736-.736V1.4c0-.773-.663-1.399-1.51-1.399H1.51C.663-.035 0 .627 0 1.401v39.163C0 41.338.663 42 1.51 42h-.002zm28.895-11.41-3.35 3.35-2.613-2.614 14.503-14.503 2.614 2.613L30.403 30.59zM42.22 16.198c.331.33.515.81.479 1.325 0 .294-.074.552-.221.81l-2.43-2.43a1.96 1.96 0 0 1 .884-.22c.515.036.957.22 1.288.515zM22.747 35.632c0-.772.074-2.134.7-3.165l2.466 2.466c-1.031.663-2.393.736-3.166.7z"/><path d="M25.213 11.118H6.441a.738.738 0 0 0-.736.736c0 .405.331.736.736.736h18.772a.738.738 0 0 0 .736-.736.738.738 0 0 0-.736-.736zm0 3.975H6.441a.738.738 0 0 0-.736.736c0 .405.331.736.736.736h18.772a.738.738 0 0 0 .736-.736.738.738 0 0 0-.736-.736zm0 3.644H6.441a.738.738 0 0 0-.736.736c0 .405.331.736.736.736h18.772a.738.738 0 0 0 .736-.736.738.738 0 0 0-.736-.736zm0 3.681H6.441a.738.738 0 0 0-.736.736c0 .405.331.736.736.736h18.772a.738.738 0 0 0 .736-.736.738.738 0 0 0-.736-.736zm0 3.46H6.441a.738.738 0 0 0-.736.736c0 .405.331.736.736.736h18.772a.738.738 0 0 0 .736-.736.738.738 0 0 0-.736-.736z"/></svg>